<svg width="74" height="74" viewBox="0 0 74 74" fill="none" xmlns="http://www.w3.org/2000/svg">
<rect width="74" height="74" rx="37" fill="url(#paint0_linear_1976_74)"/>
<path d="M24.0352 47.9335C23.4752 47.9335 22.9369 48.0733 22.4593 48.3358C19.9434 45.1107 18.5625 41.1043 18.5625 37C18.5625 26.8334 26.8334 18.5625 37 18.5625C38.236 18.5625 39.4713 18.6855 40.6719 18.9281C41.0942 19.0135 41.5068 18.7401 41.5923 18.3171C41.6777 17.8942 41.4043 17.4822 40.9813 17.3964C39.6791 17.1334 38.3397 17 37 17C31.6579 17 26.6353 19.0804 22.8578 22.8578C19.0804 26.6353 17 31.6579 17 37C17 41.4937 18.5259 45.8791 21.3039 49.3947C20.9462 49.9291 20.754 50.5571 20.754 51.2148C20.754 52.0912 21.0955 52.9152 21.7153 53.5347C22.3348 54.1545 23.1588 54.496 24.0352 54.496C24.9117 54.496 25.7357 54.1545 26.3555 53.5347C26.9753 52.9152 27.3165 52.0909 27.3165 51.2145C27.3165 50.3383 26.9753 49.514 26.3555 48.8945C25.7357 48.2747 24.9117 47.9335 24.0352 47.9335V47.9335ZM25.2504 52.43C24.926 52.7547 24.4942 52.9335 24.0352 52.9335C23.5762 52.9335 23.1447 52.7547 22.82 52.43C22.4953 52.1053 22.3165 51.6738 22.3165 51.2148C22.3165 50.7555 22.4953 50.324 22.82 49.9993C23.1444 49.6746 23.5762 49.496 24.0352 49.496C24.4942 49.496 24.9257 49.6749 25.2504 49.9993C25.5751 50.324 25.754 50.7555 25.754 51.2148C25.754 51.6738 25.5751 52.1053 25.2504 52.43V52.43Z" fill="white"/>
<path d="M52.6955 24.6043C53.5448 23.3302 53.4084 21.5883 52.285 20.4649C51.6652 19.8454 50.8413 19.5039 49.9648 19.5039C49.0883 19.5039 48.2643 19.8454 47.6445 20.4649C47.0247 21.0847 46.6835 21.9087 46.6835 22.7852C46.6835 23.6616 47.0247 24.4856 47.6445 25.1054C48.2643 25.7252 49.0883 26.0664 49.9648 26.0664C50.5248 26.0664 51.0631 25.9266 51.5407 25.6642C54.0566 28.8896 55.4375 32.8956 55.4375 36.9999C55.4375 47.1666 47.1666 55.4374 37 55.4374C35.7763 55.4374 34.5525 55.3169 33.3632 55.0789C32.9403 54.9943 32.5286 55.2687 32.4437 55.6916C32.3592 56.1149 32.6336 56.5263 33.0565 56.6111C34.3465 56.869 35.6734 56.9999 37 56.9999C42.3421 56.9999 47.3647 54.9196 51.1422 51.1421C54.9196 47.3646 57 42.342 57 36.9999C57 32.5059 55.4738 28.1202 52.6955 24.6043V24.6043ZM48.7496 24.0007C48.4249 23.676 48.246 23.2444 48.246 22.7852C48.246 22.3262 48.4249 21.8947 48.7496 21.5699C49.074 21.2452 49.5058 21.0664 49.9648 21.0664C50.4238 21.0664 50.8556 21.2452 51.1803 21.5699C51.8502 22.2401 51.8502 23.3305 51.1803 24.0007C50.8556 24.3251 50.4238 24.5039 49.9648 24.5039C49.5055 24.5039 49.074 24.3251 48.7496 24.0007Z" fill="white"/>
<path d="M33.7761 50.4375C33.7761 50.869 34.1262 51.2187 34.5574 51.2187H39.4423C39.8738 51.2187 40.2236 50.869 40.2236 50.4375V48.9229C41.2508 48.6464 42.2328 48.2393 43.1557 47.7077L44.225 48.777C44.3715 48.9235 44.5702 49.0059 44.7777 49.0059C44.9846 49.0059 45.1836 48.9235 45.3301 48.7767L48.7828 45.3215C49.0877 45.0164 49.0877 44.5217 48.7828 44.2168L47.7147 43.1487C48.2463 42.2258 48.6534 41.2438 48.9299 40.2166H50.4387C50.8702 40.2166 51.22 39.8668 51.22 39.4353V34.5504C51.22 34.1188 50.8702 33.7691 50.4387 33.7691H48.9296C48.6531 32.7422 48.2463 31.7601 47.7147 30.8373L48.777 29.775C48.9235 29.6285 49.0059 29.4295 49.0059 29.2223C49.0056 29.0151 48.9232 28.8161 48.7767 28.6696L45.3212 25.2169C45.0164 24.912 44.5217 24.912 44.2165 25.2172L43.1557 26.2783C42.2328 25.7466 41.2508 25.3395 40.2236 25.063V23.5625C40.2236 23.131 39.8738 22.7812 39.4423 22.7812H34.5574C34.1262 22.7812 33.7761 23.131 33.7761 23.5625V25.0634C32.7492 25.3395 31.7672 25.7466 30.8443 26.2783L29.7832 25.2172C29.4783 24.9123 28.9836 24.912 28.6785 25.2169L25.2233 28.6699C25.0765 28.8164 24.9941 29.0151 24.9941 29.2223C24.9941 29.4295 25.0765 29.6285 25.223 29.775L26.2853 30.8373C25.7537 31.7601 25.3466 32.7419 25.0701 33.7691H23.564C23.1325 33.7691 22.7828 34.1188 22.7828 34.55L22.78 39.435C22.7797 39.6422 22.8621 39.8412 23.0086 39.9877C23.1551 40.1342 23.3538 40.2166 23.5613 40.2166H25.0701C25.3466 41.2438 25.7537 42.2258 26.2853 43.1487L25.2172 44.2168C24.9123 44.5217 24.912 45.0164 25.2172 45.3215L28.6699 48.7767C28.8164 48.9232 29.0151 49.0059 29.2223 49.0059H29.2226C29.4298 49.0059 29.6285 48.9235 29.775 48.777L30.844 47.7077C31.7672 48.2393 32.7492 48.6464 33.7761 48.9229V50.4375ZM31.1504 46.0646C30.8412 45.8647 30.4344 45.9081 30.1738 46.1684L29.2226 47.1196L26.8743 44.7695L27.8246 43.8188C28.0849 43.5585 28.1282 43.1517 27.9283 42.8426C27.22 41.7464 26.722 40.5449 26.4485 39.2711C26.371 38.9113 26.053 38.6541 25.6847 38.6541H24.3428L24.3447 35.3316H25.6847C26.053 35.3316 26.371 35.0746 26.4485 34.7145C26.722 33.441 27.22 32.2396 27.9283 31.1434C28.1282 30.8342 28.0849 30.4274 27.8246 30.1671L26.8804 29.2226L29.2305 26.8743L30.1738 27.8179C30.4344 28.0782 30.8409 28.1212 31.1504 27.9216C32.2463 27.2133 33.4478 26.7153 34.7216 26.4418C35.0814 26.3643 35.3386 26.046 35.3386 25.678V24.3437H38.6611V25.6777C38.6611 26.046 38.918 26.3643 39.2781 26.4415C40.5516 26.7153 41.7534 27.213 42.8493 27.9213C43.1584 28.1212 43.5652 28.0782 43.8256 27.8176L44.7692 26.8743L47.1193 29.2226L46.1751 30.1668C45.9145 30.4274 45.8715 30.8342 46.0713 31.1434C46.7797 32.2396 47.2774 33.441 47.5511 34.7145C47.6284 35.0746 47.9467 35.3316 48.315 35.3316H49.6575V38.6541H48.315C47.9467 38.6541 47.6287 38.9113 47.5511 39.2711C47.2777 40.5446 46.7797 41.7464 46.0713 42.8423C45.8715 43.1517 45.9148 43.5585 46.1751 43.8188L47.1254 44.7692L44.7771 47.1193L43.8259 46.1684C43.5652 45.9078 43.1584 45.8647 42.8493 46.0646C41.7531 46.7729 40.5516 47.2707 39.2781 47.5444C38.918 47.6219 38.6611 47.9399 38.6611 48.3083V49.6562H35.3386V48.3083C35.3386 47.9402 35.0814 47.6219 34.7216 47.5444C33.4481 47.271 32.2466 46.7729 31.1504 46.0646V46.0646Z" fill="white"/>
<path d="M43.4554 36.9999C43.4554 33.4404 40.5596 30.5446 37 30.5446C33.4404 30.5446 30.5446 33.4404 30.5446 36.9999C30.5446 40.5595 33.4404 43.4553 37 43.4553C40.5596 43.4553 43.4554 40.5595 43.4554 36.9999ZM32.1071 36.9999C32.1071 34.3019 34.3019 32.1071 37 32.1071C39.6981 32.1071 41.8929 34.3022 41.8929 36.9999C41.8929 39.6977 39.6981 41.8928 37 41.8928C34.3019 41.8928 32.1071 39.698 32.1071 36.9999Z" fill="white"/>
<path d="M44.1936 19.9547C44.3993 19.9547 44.6007 19.871 44.746 19.7258C44.8912 19.5796 44.9749 19.3782 44.9749 19.1725C44.9749 18.968 44.8915 18.7663 44.746 18.6201C44.6007 18.4749 44.3993 18.3912 44.1936 18.3912C43.9873 18.3912 43.7868 18.4749 43.6415 18.6201C43.496 18.7663 43.4124 18.9671 43.4124 19.1725C43.4124 19.3788 43.496 19.5796 43.6415 19.7258C43.7868 19.871 43.9873 19.9547 44.1936 19.9547Z" fill="white"/>
<path d="M29.8406 54.0593C29.6352 54.0593 29.4335 54.1429 29.2882 54.2882C29.1429 54.4335 29.0593 54.6352 29.0593 54.8406C29.0593 55.0469 29.1429 55.2477 29.2882 55.3929C29.4335 55.5382 29.6352 55.6218 29.8406 55.6218C30.046 55.6218 30.2477 55.5382 30.3929 55.3929C30.5382 55.2477 30.6218 55.046 30.6218 54.8406C30.6218 54.6352 30.5382 54.4335 30.3929 54.2882C30.2477 54.1429 30.046 54.0593 29.8406 54.0593Z" fill="white"/>
<defs>
<linearGradient id="paint0_linear_1976_74" x1="37" y1="0" x2="37" y2="74" gradientUnits="userSpaceOnUse">
<stop stop-color="#84D8ED"/>
<stop offset="1" stop-color="#4292BB"/>
</linearGradient>
</defs>
</svg>
