<svg width="35" height="21" viewBox="0 0 35 21" fill="none" xmlns="http://www.w3.org/2000/svg">
<path d="M29.8704 1.65517L29.8705 1.65511C30.0727 1.45274 30.3128 1.29216 30.5771 1.18259C30.8414 1.07302 31.1247 1.01661 31.4108 1.01661C31.6969 1.01661 31.9802 1.07302 32.2445 1.18259C32.5088 1.29216 32.7489 1.45274 32.9511 1.65511C33.1533 1.85748 33.3136 2.09768 33.423 2.36197C33.5323 2.62626 33.5886 2.9095 33.5886 3.1955C33.5886 3.48151 33.5323 3.76474 33.423 4.02904C33.3136 4.29333 33.1533 4.53353 32.9511 4.7359L18.8358 18.8639C18.8356 18.8641 18.8355 18.8642 18.8353 18.8644C18.6333 19.067 18.3933 19.2278 18.129 19.3375C17.8646 19.4474 17.581 19.5039 17.2946 19.5039C17.0082 19.5039 16.7247 19.4474 16.4602 19.3375C16.196 19.2278 15.956 19.067 15.7539 18.8644L15.7543 18.8648L16.4616 18.1582L15.7534 18.8639L29.8704 1.65517ZM29.8704 1.65517L17.2946 14.2446L4.71962 1.656C4.71946 1.65584 4.7193 1.65568 4.71914 1.65552C4.51712 1.45293 4.27713 1.29214 4.01287 1.18238C3.74839 1.07254 3.46484 1.01599 3.17845 1.01599C2.89206 1.01599 2.60851 1.07254 2.34403 1.18238C2.07956 1.29223 1.8394 1.45319 1.63728 1.656L2.3456 2.3619L1.63907 1.65422C1.43643 1.85652 1.27571 2.0968 1.16607 2.36127C1.05643 2.62574 1 2.90922 1 3.1955C1 3.48178 1.05643 3.76527 1.16607 4.02974C1.27561 4.29397 1.43614 4.53405 1.63852 4.73624M29.8704 1.65517L1.63907 4.73679M1.63907 4.73679L2.3456 4.02911L1.63817 4.7359L1.63852 4.73624M1.63907 4.73679C1.63888 4.73661 1.6387 4.73642 1.63852 4.73624M1.63907 4.73679L1.63852 4.73624" fill="url(#paint0_linear_2024_129)" stroke="url(#paint1_linear_2024_129)" stroke-width="2"/>
<defs>
<linearGradient id="paint0_linear_2024_129" x1="2" y1="11.9774" x2="63.7409" y2="12.6716" gradientUnits="userSpaceOnUse">
<stop stop-color="#2563EB"/>
<stop offset="1" stop-color="#D946EF"/>
</linearGradient>
<linearGradient id="paint1_linear_2024_129" x1="2" y1="11.9774" x2="63.7409" y2="12.6716" gradientUnits="userSpaceOnUse">
<stop stop-color="#2563EB"/>
<stop offset="1" stop-color="#D946EF"/>
</linearGradient>
</defs>
</svg>
