<svg width="30" height="29" viewBox="0 0 30 29" fill="none" xmlns="http://www.w3.org/2000/svg">
<path d="M0.808884 13.1795C0.472513 12.9251 0.223001 12.5703 0.0953331 12.1648C-0.0323353 11.7593 -0.0317593 11.3234 0.096983 10.9182C0.225727 10.513 0.476181 10.1589 0.813225 9.90551C1.15027 9.65209 1.557 9.5121 1.97639 9.50515L10.1218 9.19283C10.1619 9.19002 10.2002 9.17552 10.2324 9.15108C10.2645 9.12663 10.2889 9.09328 10.3028 9.05504L13.1175 1.33897C13.2589 0.946405 13.5158 0.607428 13.8533 0.367935C14.1908 0.128442 14.5927 0 15.0045 0C15.4163 0 15.8182 0.128442 16.1557 0.367935C16.4933 0.607428 16.7501 0.946405 16.8915 1.33897L19.6972 9.0826C19.7111 9.12083 19.7355 9.15419 19.7676 9.17863C19.7998 9.20308 19.8381 9.21758 19.8782 9.22039L28.0236 9.5327C28.443 9.53965 28.8497 9.67965 29.1868 9.93306C29.5238 10.1865 29.7743 10.5406 29.903 10.9458C30.0318 11.3509 30.0323 11.7868 29.9047 12.1924C29.777 12.5979 29.5275 12.9527 29.1911 13.207L22.8015 18.3051C22.7685 18.3299 22.7439 18.3643 22.7309 18.4038C22.718 18.4432 22.7173 18.4858 22.7291 18.5256L24.9284 26.4346C25.0054 26.736 25.0137 27.0513 24.9527 27.3564C24.8917 27.6616 24.7629 27.9487 24.5762 28.1957C24.3895 28.4428 24.1497 28.6435 23.8751 28.7824C23.6005 28.9213 23.2984 28.9948 22.9916 28.9974C22.5916 28.997 22.2008 28.8755 21.8693 28.6483L15.1177 24.0555C15.0844 24.0321 15.0449 24.0197 15.0045 24.0197C14.9641 24.0197 14.9247 24.0321 14.8914 24.0555L8.13975 28.6483C7.79809 28.8836 7.39333 29.0063 6.98053 28.9998C6.56773 28.9932 6.16693 28.8578 5.83265 28.6119C5.49838 28.3659 5.24686 28.0215 5.11232 27.6253C4.97777 27.2292 4.96673 26.8006 5.0807 26.3978L7.29806 18.4613C7.30854 18.4214 7.30727 18.3792 7.2944 18.3401C7.28154 18.3009 7.25764 18.2664 7.22566 18.2408L0.808884 13.1795ZM14.9909 22.2183C15.391 22.2181 15.7819 22.3397 16.1132 22.5674L22.8739 27.1603C22.9081 27.1866 22.9498 27.2011 22.9928 27.2014C23.0358 27.2018 23.0777 27.188 23.1123 27.1622C23.147 27.1363 23.1724 27.0998 23.1849 27.0581C23.1974 27.0163 23.1962 26.9716 23.1816 26.9306L20.9643 18.9941C20.8511 18.6083 20.8536 18.1971 20.9712 17.8128C21.0888 17.4284 21.3164 17.0882 21.6249 16.8354L28.0508 11.7373C28.0856 11.7124 28.1117 11.6769 28.1252 11.6359C28.1387 11.5949 28.1388 11.5506 28.1257 11.5095C28.1125 11.4683 28.0867 11.4326 28.052 11.4075C28.0174 11.3823 27.9757 11.3692 27.9331 11.3699L19.7877 11.0575C19.3925 11.0357 19.0125 10.8959 18.6953 10.6557C18.3781 10.4155 18.1379 10.0855 18.0048 9.70723L15.1991 1.9636C15.1886 1.92156 15.1637 1.88465 15.1289 1.85943C15.0941 1.83422 15.0517 1.82231 15.0091 1.82582L14.9909 22.2183Z" fill="white"/>
</svg>
