<svg width="74" height="74" viewBox="0 0 74 74" fill="none" xmlns="http://www.w3.org/2000/svg">
<rect width="74" height="74" rx="37" fill="url(#paint0_linear_1_156)"/>
<path d="M51.021 31.1365C50.6217 30.9748 50.1638 31.1609 49.9985 31.5524L48.2502 35.6972L46.502 31.5524C46.3367 31.161 45.879 30.9745 45.4795 31.1365C45.08 31.2984 44.89 31.747 45.0552 32.1385L47.4872 37.9042C47.7606 38.5523 48.7496 38.5293 49.0133 37.9042L51.4453 32.1385C51.6105 31.747 51.4205 31.2984 51.021 31.1365V31.1365ZM56.3732 35.5226C58.6016 34.3749 57.7496 31.0783 55.2584 31.0783H53.2793C52.847 31.0783 52.4965 31.4217 52.4965 31.8454V37.6666C52.4965 38.0903 52.8469 38.4336 53.2793 38.4336C53.7116 38.4336 54.062 38.0902 54.062 37.6666V35.792H54.6785L56.2275 38.0895C56.4658 38.4429 56.9514 38.5403 57.312 38.3066C57.6728 38.073 57.7719 37.5972 57.5335 37.2436L56.3732 35.5226ZM55.2584 34.2579H54.062V32.6126H55.2584C55.7213 32.6126 56.0978 32.9817 56.0978 33.4352C56.0978 33.8888 55.7213 34.2579 55.2584 34.2579ZM16.4369 37.78C16.0047 37.78 15.6543 38.1235 15.6543 38.5472V39.7513C15.6543 40.1751 16.0047 40.5185 16.4369 40.5185C16.8692 40.5185 17.2197 40.1751 17.2197 39.7513V38.5472C17.2197 38.1235 16.8692 37.78 16.4369 37.78V37.78ZM20.2861 29.5415C17.6021 29.5415 15.6542 31.4507 15.6542 34.0811V35.9384C15.6542 36.3621 16.0046 36.7056 16.4368 36.7056C16.8691 36.7056 17.2196 36.3621 17.2196 35.9384V34.0811C17.2196 32.5852 18.1677 31.0759 20.2861 31.0759C20.7183 31.0759 21.0689 30.7325 21.0689 30.3087C21.0689 29.885 20.7183 29.5415 20.2861 29.5415ZM63.0183 33.6274H62.2283C62.1789 29.8074 58.9946 26.7143 55.0853 26.7143H42.8361V25.9423C42.8361 24.8713 41.9471 24 40.8544 24H34.1456C33.0529 24 32.1639 24.8713 32.1639 25.9423V26.7143H19.9147C16.0055 26.7143 12.8212 29.8075 12.7717 33.6274H11.9817C10.889 33.6274 10 34.4987 10 35.5697V42.1447C10 43.2156 10.889 44.0869 11.9818 44.0869H12.7718C12.8212 47.9069 16.0055 51 19.9148 51H31.792C33.4253 51 34.754 49.6978 34.754 48.0972C34.754 47.2878 35.4257 46.6295 36.2514 46.6295H38.7487C39.5744 46.6295 40.2461 47.2879 40.2461 48.0972C40.2461 49.6978 41.5748 51 43.2081 51H55.0853C58.9946 51 62.1789 47.9069 62.2283 44.0869H63.0183C64.111 44.0869 65 43.2156 65 42.1447V35.5697C65 34.4987 64.111 33.6274 63.0183 33.6274V33.6274ZM12.7694 42.5525H11.9818C11.7523 42.5525 11.5655 42.3695 11.5655 42.1445V35.5696C11.5655 35.3446 11.7523 35.1615 11.9818 35.1615H12.7694V42.5525ZM33.7294 25.9423C33.7294 25.7173 33.9162 25.5343 34.1456 25.5343H40.8544C41.0839 25.5343 41.2706 25.7173 41.2706 25.9423V26.7143H33.7294V25.9423ZM60.6515 43.9972C60.6515 47.0051 58.1544 49.4524 55.0853 49.4524H43.2081C42.4456 49.4524 41.8252 48.8444 41.8252 48.0971C41.8252 46.4344 40.4451 45.0818 38.7486 45.0818H36.2513C34.5549 45.0818 33.1747 46.4344 33.1747 48.0971C33.1747 48.8444 32.5544 49.4524 31.7918 49.4524H19.9147C16.8456 49.4524 14.3485 47.0051 14.3485 43.9972V33.7171C14.3485 30.7091 16.8456 28.2619 19.9147 28.2619H55.0853C58.1544 28.2619 60.6515 30.7091 60.6515 33.7171V43.9972ZM63.4345 42.1447C63.4345 42.3696 63.2477 42.5526 63.0183 42.5526H62.2307V35.1617H63.0183C63.2478 35.1617 63.4345 35.3448 63.4345 35.5698V42.1447Z" fill="white"/>
<defs>
<linearGradient id="paint0_linear_1_156" x1="37" y1="0" x2="37" y2="74" gradientUnits="userSpaceOnUse">
<stop stop-color="#8A7FD9"/>
<stop offset="1" stop-color="#402F8F"/>
</linearGradient>
</defs>
</svg>
