<svg width="74" height="74" viewBox="0 0 74 74" fill="none" xmlns="http://www.w3.org/2000/svg">
<rect width="74" height="74" rx="37" fill="url(#paint0_linear_1976_71)"/>
<path d="M57.7195 37.4722L50.4326 32.8832V20.6035C50.4326 18.6165 48.8161 17 46.8291 17H28.1709C26.1839 17 24.5674 18.6165 24.5674 20.6035V22.4453C24.5674 22.7771 24.8362 23.0459 25.168 23.0459C25.4997 23.0459 25.7686 22.7771 25.7686 22.4453V20.6035C25.7686 19.2789 26.8462 18.2012 28.1709 18.2012H46.8291C48.1538 18.2012 49.2314 19.2789 49.2314 20.6035V32.1267L47.7805 31.2129C47.5 31.0363 47.129 31.1204 46.9522 31.4011C46.7754 31.6818 46.8597 32.0526 47.1404 32.2294L49.2314 33.5464V42.4147L47.1404 43.7317C46.8597 43.9085 46.7754 44.2793 46.9522 44.56C47.13 44.8431 47.504 44.9233 47.7805 44.7482L49.2314 43.8344V54.3965C49.2314 55.7211 48.1538 56.7988 46.8291 56.7988H40.3828C40.051 56.7988 39.7822 57.0677 39.7822 57.3994C39.7822 57.7312 40.051 58 40.3828 58H46.8291C48.8161 58 50.4326 56.3835 50.4326 54.3965V43.0778L57.7195 38.4886C57.8941 38.3787 58 38.1867 58 37.9804C58 37.774 57.8941 37.5822 57.7195 37.4722V37.4722ZM50.4326 41.6582V34.3028L56.2725 37.9805L50.4326 41.6582Z" fill="white"/>
<path d="M37.5801 56.7988H28.1709C26.8462 56.7988 25.7686 55.7211 25.7686 54.3965V43.8343L27.2195 44.748C27.4959 44.9232 27.8699 44.8429 28.0478 44.5598C28.2246 44.2792 28.1403 43.9083 27.8596 43.7315L25.7686 42.4146V33.5463L27.8596 32.2293C28.1403 32.0525 28.2246 31.6817 28.0478 31.401C27.871 31.1203 27.5001 31.0362 27.2195 31.2128L25.7686 32.1267V25.248C25.7686 24.9163 25.4997 24.6475 25.168 24.6475C24.8362 24.6475 24.5674 24.9163 24.5674 25.248V32.8832L17.2805 37.4722C17.1059 37.5822 17 37.7741 17 37.9805C17 38.1868 17.1059 38.3788 17.2805 38.4887L24.5674 43.0778V54.3965C24.5674 56.3835 26.1839 58 28.1709 58H37.5801C37.9118 58 38.1807 57.7312 38.1807 57.3994C38.1807 57.0677 37.9118 56.7988 37.5801 56.7988ZM18.7276 37.9805L24.5674 34.3027V41.6581L18.7276 37.9805Z" fill="white"/>
<path d="M38.501 19.4023H34.4971C34.1653 19.4023 33.8965 19.6712 33.8965 20.0029C33.8965 20.3347 34.1653 20.6035 34.4971 20.6035H38.501C38.8327 20.6035 39.1016 20.3347 39.1016 20.0029C39.1016 19.6712 38.8327 19.4023 38.501 19.4023Z" fill="white"/>
<path d="M40.0032 20.336C40.1767 20.6077 40.5716 20.6865 40.8361 20.5026C41.1461 20.3062 41.1941 19.8309 40.9273 19.5785C40.7054 19.3471 40.3007 19.3451 40.0785 19.5785C39.878 19.772 39.8451 20.1065 40.0032 20.336V20.336Z" fill="white"/>
<path d="M30.3237 32.9545C30.1563 33.0622 30.0526 33.2576 30.0527 33.4561V42.5049C30.0527 42.7101 30.1574 42.9009 30.3303 43.0112L37.177 47.3793C37.3731 47.5043 37.6236 47.505 37.8204 47.3809L44.7472 43.0129C44.9216 42.903 45.0273 42.7111 45.0273 42.5049V40.8633C45.0273 40.5315 44.7585 40.2627 44.4268 40.2627C44.095 40.2627 43.8262 40.5315 43.8262 40.8633V42.1736L38.1006 45.7841V38.1554L43.8262 34.5448V38.0606C43.8262 38.3923 44.095 38.6612 44.4268 38.6612C44.7585 38.6612 45.0273 38.3923 45.0273 38.0606V33.4561C45.0279 33.2532 44.9192 33.0557 44.7472 32.9481L37.8204 28.58C37.6236 28.4558 37.3731 28.4567 37.177 28.5817L30.3303 32.9497C30.328 32.9512 30.326 32.953 30.3237 32.9545V32.9545ZM37.5018 29.7993L43.3008 33.4561L37.5018 37.1128L35.6408 35.9255C35.3614 35.7474 34.99 35.8294 34.8115 36.1088C34.633 36.3885 34.7152 36.7598 34.9948 36.9382L36.8994 38.1534V45.7773L31.2539 42.1757V34.5517L32.6274 35.428C32.903 35.6048 33.2772 35.5266 33.4568 35.2447C33.6352 34.9651 33.553 34.5937 33.2735 34.4153L31.77 33.4561L37.5018 29.7993Z" fill="white"/>
<path d="M32.2739 28.0218L29.748 29.6207C29.4677 29.798 29.3842 30.169 29.5617 30.4493C29.7401 30.732 30.1143 30.8115 30.3903 30.6356L32.9163 29.0367C33.1966 28.8594 33.28 28.4884 33.1026 28.2081C32.9253 27.9277 32.554 27.8444 32.2739 28.0218Z" fill="white"/>
<path d="M37.1799 24.94L34.8083 26.4335C34.5277 26.6103 34.4434 26.9812 34.6202 27.2618C34.797 27.5425 35.1678 27.6267 35.4485 27.45L37.5 26.158L39.5515 27.45C39.828 27.6251 40.2019 27.5449 40.3798 27.2618C40.5566 26.9812 40.4723 26.6103 40.1917 26.4335L37.8201 24.94C37.6244 24.8169 37.3756 24.8169 37.1799 24.94V24.94Z" fill="white"/>
<path d="M45.2243 29.5828L42.7183 28.025C42.4365 27.8498 42.0662 27.9362 41.8912 28.2179C41.716 28.4997 41.8024 28.8699 42.0841 29.045L44.5901 30.6028C44.8674 30.7764 45.2411 30.694 45.4172 30.4099C45.5925 30.1281 45.5061 29.7579 45.2243 29.5828Z" fill="white"/>
<path d="M44.6166 45.321L42.069 46.8851C41.7863 47.0586 41.6979 47.4284 41.8714 47.7111C42.046 47.9962 42.4192 48.0806 42.6974 47.9087L45.245 46.3447C45.5277 46.1712 45.6162 45.8014 45.4426 45.5187C45.2692 45.2358 44.8992 45.1475 44.6166 45.321Z" fill="white"/>
<path d="M39.5515 48.5109L37.5 49.803L35.4485 48.5109C35.1676 48.3344 34.797 48.4185 34.6202 48.6991C34.4434 48.9798 34.5277 49.3506 34.8083 49.5275L37.1799 51.021C37.3756 51.1442 37.6244 51.1442 37.8201 51.021L40.1917 49.5275C40.4723 49.3506 40.5566 48.9798 40.3798 48.6991C40.203 48.4185 39.8322 48.3344 39.5515 48.5109V48.5109Z" fill="white"/>
<path d="M29.7459 46.3497L32.2803 47.9352C32.5572 48.1096 32.931 48.0281 33.108 47.7445C33.2838 47.4633 33.1985 47.0928 32.9173 46.9168L30.3829 45.3314C30.1017 45.1557 29.7311 45.2408 29.5552 45.522C29.3794 45.8032 29.4646 46.1737 29.7459 46.3497Z" fill="white"/>
<defs>
<linearGradient id="paint0_linear_1976_71" x1="37" y1="0" x2="37" y2="74" gradientUnits="userSpaceOnUse">
<stop stop-color="#D97F95"/>
<stop offset="1" stop-color="#923250"/>
</linearGradient>
</defs>
</svg>
