<svg width="30" height="29" viewBox="0 0 30 29" fill="none" xmlns="http://www.w3.org/2000/svg">
<path d="M29.0304 10.2117L20.037 8.88865L16.0167 0.638245C15.9069 0.412354 15.7262 0.22949 15.5031 0.118337C14.9434 -0.161338 14.2633 0.0717248 13.9835 0.638245L9.96319 8.88865L0.969774 10.2117C0.721827 10.2476 0.495132 10.3659 0.321568 10.5452C0.11174 10.7635 -0.00388537 11.0572 9.96959e-05 11.3618C0.00408476 11.6663 0.127354 11.9568 0.342821 12.1694L6.84968 18.5912L5.3124 27.6591C5.27635 27.8701 5.29941 28.087 5.37896 28.2854C5.45852 28.4837 5.59138 28.6555 5.76249 28.7813C5.9336 28.9071 6.13611 28.9819 6.34705 28.9971C6.55799 29.0123 6.76893 28.9674 6.95594 28.8675L15.0001 24.5863L23.0442 28.8675C23.2638 28.9858 23.5188 29.0252 23.7633 28.9822C24.3796 28.8746 24.794 28.283 24.6877 27.6591L23.1505 18.5912L29.6573 12.1694C29.8344 11.9938 29.9513 11.7643 29.9867 11.5133C30.0824 10.8858 29.6502 10.305 29.0304 10.2117Z" fill="white"/>
</svg>
