<svg width="19" height="18" viewBox="0 0 19 18" fill="none" xmlns="http://www.w3.org/2000/svg">
<path d="M18.145 8.24613L11.6037 1.23953C11.4169 1.03953 11.1681 0.929749 10.9027 0.929749C10.637 0.929749 10.3883 1.03969 10.2016 1.23953L9.60769 1.87582C9.42111 2.07551 9.31833 2.34223 9.31833 2.62662C9.31833 2.91086 9.42111 3.18657 9.60769 3.38626L13.4238 7.4827L1.29984 7.4827C0.753205 7.4827 0.321289 7.94107 0.321289 8.52673V9.42627C0.321289 10.0119 0.753205 10.5165 1.29984 10.5165H13.4671L9.60784 14.6358C9.42126 14.8358 9.31847 15.0953 9.31847 15.3797C9.31847 15.6638 9.42126 15.927 9.60784 16.1269L10.2017 16.7611C10.3885 16.9611 10.6372 17.0701 10.9029 17.0701C11.1682 17.0701 11.4171 16.9597 11.6038 16.7597L18.1451 9.75325C18.3323 9.55262 18.4352 9.28479 18.4345 9.00008C18.4351 8.71443 18.3323 8.44644 18.145 8.24613Z" fill="white"/>
</svg>
